<svg xmlns="http://www.w3.org/2000/svg" viewBox="0 0 512 512" style="fill:#ffc400">
  <path d="m 213.03717,127.11111 c 0,-36.87791 42.96281,-103.1111 42.96281,-103.1111 0,0 42.96281,66.23319 42.96281,103.1111 0,36.8779 -42.96281,103.11111 -42.96281,103.11111 0,0 -42.96281,-66.23321 -42.96281,-103.11111 z"/>
  <path d="m 377.51751,195.24111 c -26.07663,26.07661 -103.28987,42.53127 -103.28987,42.53127 0,0 16.45466,-77.21324 42.53127,-103.28985 26.07663,-26.07663 103.28987,-42.53128 103.28987,-42.53128 0,0 -16.45466,77.21325 -42.53127,103.28986 z"/>
  <path d="m 384.88889,213.03721 c 36.87791,0 103.11111,42.96281 103.11111,42.96281 0,0 -66.2332,42.96281 -103.11111,42.96281 -36.8779,0 -103.11111,-42.96281 -103.11111,-42.96281 0,0 66.23321,-42.96281 103.11111,-42.96281 z"/>
  <path d="M 316.75893,377.51753 C 290.6823,351.4409 274.22765,274.22767 274.22765,274.22767 c 0,0 77.21323,16.45465 103.28986,42.53127 26.07661,26.07661 42.53127,103.28986 42.53127,103.28986 0,0 -77.21324,-16.45466 -103.28985,-42.53127 z"/>
  <path d="m 213.03717,384.88889 c 0,-36.87791 42.96281,-103.11111 42.96281,-103.11111 0,0 42.96281,66.2332 42.96281,103.11111 0,36.87789 -42.96281,103.11111 -42.96281,103.11111 0,0 -42.96281,-66.23322 -42.96281,-103.11111 z"/>
  <path d="M 195.24109,377.51751 C 169.16446,403.59414 91.951241,420.0488 91.951241,420.0488 c 0,0 16.454639,-77.21325 42.531269,-103.28987 26.07661,-26.07661 103.28985,-42.53127 103.28985,-42.53127 0,0 -16.45466,77.21326 -42.53127,103.28985 z"/>
  <path d="m 127.11111,213.03721 c 36.87791,0 103.11111,42.96281 103.11111,42.96281 0,0 -66.2332,42.96281 -103.11111,42.96281 -36.877889,0 -103.111109,-42.96281 -103.111109,-42.96281 0,0 66.23322,-42.96281 103.111109,-42.96281 z"/>
  <path d="M 134.48251,195.24111 C 108.40588,169.16448 91.951241,91.95126 91.951241,91.95126 c 0,0 77.213219,16.45464 103.289849,42.53127 26.07661,26.07661 42.53127,103.28985 42.53127,103.28985 0,0 -77.21324,-16.45466 -103.28985,-42.53127 z"/>
</svg>
